<?xml version='1.0' encoding='utf-8'?>
<svg xmlns="http://www.w3.org/2000/svg" width="1244.7917" height="834.83911" id="svg2" version="1.1"> <defs id="defs4"/> <metadata id="metadata7"> </metadata> <g id="layer1" transform="translate(47.205075,-74.940094)"> <path style="fill:#164450;stroke:none" d="M 305.1814,248.2817 C 296.0879,64.329189 597.7124,-8.8104409 677.9527,208.18545 l -4.6892,-1.17391 C 587.0213,14.265239 316.7098,63.379109 313.3208,251.44759 Z" id="path3098"/> <path style="fill:#666666;stroke:none" d="M 318.099,251.13944 C 347.295,77.730449 595.0055,39.273439 667.7323,209.95184 l 5.5312,-2.9403 C 568.8369,4.7289191 326.1128,101.60903 312.4376,246.3374 Z" id="path3100"/> <path id="path3126" d="M 321.4384,248.51284 C 352.1168,68.833229 595.0055,46.574909 667.7323,211.37128 l 5.5312,-2.83897 C 568.8369,13.220889 332.7917,103.40101 319.1165,243.14165 Z" style="fill:#1a1a1a;stroke:none"/> <path style="fill:#87cdde;stroke:none" d="m 325.6332,279.25746 8.6732,-5.72653 -8.6842,-28.78201 -11.1036,-3.34381 z" id="path3096"/> <path id="path3118" d="M 310.9565,248.40016 C 302.024,71.330369 598.3077,0.92731909 677.1272,209.80414 l -4.6061,-1.12999 C 592.9866,10.035529 300.9891,76.480989 318.9517,251.44759 Z" style="fill:#0b2228;stroke:none"/> <path style="fill:#164450;stroke:none" d="m 310.5457,282.81408 -7.9075,-36.76739 13.3624,-4.55262 10.8717,36.94531 z" id="path3094"/> <path style="fill:#87cdde;stroke:none" d="m 673.1984,203.14037 7.8074,3.74092 7.3086,41.78864 -17.1208,-2.21757 z" id="path3104"/> <path style="fill:#1a1a1a;stroke:none" d="m 660.6778,203.57877 -4.3811,3.6043 -5.5439,42.80207 12.5206,-0.4384 3.9077,-45.28014 z" id="path3106"/> <path style="fill:#164450;stroke:none" d="m 662.1599,203.66773 -4.9038,47.00525 21.5909,-2.8688 -5.4056,-43.75678 z" id="path3102"/> <path id="path3072" d="m 1161.4738,413.65531 c -0.8751,-0.51253 -1.7707,-1.00146 -2.6678,-1.50419 -53.4903,-26.14324 -106.1602,-45.58038 -157.6822,-55.38646 -80.7024,-8.3905 -160.4875,-14.90358 -251.365,-43.8729 l -4.3236,-19.63632 c 6.0212,-12.6376 5.2662,-22.62355 -8.3116,-27.604 C 724.984,256.84913 708.728,249.1472 687.5918,242.75557 L 643.9122,241.78585 622.508,165.234 C 557.5375,87.776529 382.3974,67.386429 358.5562,202.53699 c -4.0765,20.38047 -0.1604,38.60969 -12.5366,61.21407 l -35.1527,13.94869 c -8.8083,9.56631 -19.0503,20.06453 -22.0304,25.78278 -9.2187,6.08667 -13.3286,13.20533 -12.3437,21.38 -3.7214,13.10573 -7.3033,26.68683 -9.8369,44.22541 -0.048,12.77085 -5.3575,32.16912 2.9279,34.49116 3.6866,8.05353 4.146,16.97941 11.8202,23.96444 4.8578,11.32736 9.2676,24.7854 16.1117,26.40613 -63.5902,70.00259 -124.0594,147.80512 -232.071396,184.31188 -37.4099,28.39167 -75.5555,34.4173 -97.5752,90.27785 -11.5276,24.70922 -26.9916,48.2221 2.0736,85.34597 13.597,16.59407 27.9002997,20.85708 42.3295,22.99562 4.2699,2.3423 40.0093,2.8893 77.8338,-6.37465 C 124.6012,831.29257 173.371,750.4493 250.03,728.88488 c 13.729,60.51529 -2.2884,128.24301 -24.0933,180.04328 l 568.2139,-2.4159 c -6.9432,-69.69907 -39.0004,-134.11765 -32.183,-179.09278 5.2362,-34.54371 27.3088,-16.67415 148.5272,-77.86836 84.8665,-10.64298 160.8956,-65.96912 239.4654,-108.45361 26.9082,-6.34593 31.8127,-35.46903 43.3246,-57.72801 11.6429,-33.12769 -4.6812,-53.82703 -31.811,-69.71419 z m -221.1641,56.62993 c 8.3889,3.42396 15.7953,9.39339 23.78,14.8119 -13.9363,11.74489 -33.2635,12.62698 -52.3088,14.03897 -99.9846,-17.76963 -124.0216,13.26773 -170.0288,30.18601 -42.5957,-0.81208 -80.6709,-33.00917 -120.9532,-49.87775 l -1.0051,-47.63428 c 8.4231,3.1985 16.2832,16.12229 15.3871,20.28637 15.2897,16.57071 22.9729,4.73641 32.6318,0.2926 16.5492,6.99172 35.4098,-24.76798 53.1586,-37.76095 59.467,20.06071 133.0556,20.44028 219.3384,55.65713 z m -525.298,-6.61526 c 5.346,8.51301 13.2981,17.13406 23.0056,24.4784 -10.4601,-8.1725 -23.3497,-2.08947 -36.0931,5.58559 5.2722,-3.83629 -1.8833,-37.79967 -1.7644,-47.50041 0.076,-6.17091 6.8821,1.78377 14.8519,17.43642 z m -14.0049,30.65295 c -0.6206,0.40396 -1.2841,0.7995 -1.9587,1.14249 0.648,-0.39576 1.3111,-0.74995 1.9587,-1.14249 z" style="fill:#000000;stroke:#000000;stroke-width:1px;stroke-linecap:butt;stroke-linejoin:miter;stroke-opacity:1"/> <path id="path3087" d="m 624.2826,282.02612 c 8.965,-4.84563 18.0068,-5.12564 26.8623,-16.47785 7.3158,0.79015 15.0681,1.83235 20.3182,1.42991 5.9164,3.88443 11.6152,8.52929 18.8929,7.6549 l 2.9844,9.85529 c -21.0839,16.79109 -17.6251,37.695 -23.1994,57.08516 0.9248,29.7943 -21.176,46.44475 -20.5801,83.53629 -6.3348,-2.68997 -12.1883,-11.01413 -19.2535,-5.15232 l -9.4149,-4.35144 -1.2557,-84.21589 1.8703,-27.65411 z" style="fill:#afdde9;stroke:#000000;stroke-width:1px;stroke-linecap:butt;stroke-linejoin:miter;stroke-opacity:1"/> <path id="path3157" d="m 620.8118,410.86059 -0.5313,22.3125 8,0.1875 c -2.9362,-4.32424 -0.067,-14.45337 0.5313,-22.3125 z" style="color:#000000;font-style:normal;font-variant:normal;font-weight:normal;font-stretch:normal;font-size:medium;line-height:normal;font-family:Sans;-inkscape-font-specification:Sans;text-indent:0;text-align:start;text-decoration:none;text-decoration-line:none;letter-spacing:normal;word-spacing:normal;text-transform:none;direction:ltr;block-progression:tb;writing-mode:lr-tb;baseline-shift:baseline;text-anchor:start;display:inline;overflow:visible;visibility:visible;fill:#ffffff;fill-opacity:1;stroke:none;stroke-width:8;marker:none;enable-background:accumulate"/> <path id="path3085" d="m 373.2005,317.94996 c -3.0829,4.8742 -3.1906,8.25374 -32.0864,3.00846 -0.5078,7.37484 -9.8312,7.82992 -16.8405,10.10147 -2.9093,7.82789 -6.2233,15.42213 -11.2811,22.00956 7.1438,7.14899 7.42,16.98112 7.2331,26.99417 27.9084,18.07549 43.8557,36.0169 48.782,53.83476 12.5205,-1.57836 26.7577,11.15786 42.2565,24.04565 -22.4609,-41.88322 -26.6071,-92.66975 -38.0636,-139.99407 z" style="fill:#afdde9;stroke:#000000;stroke-width:1px;stroke-linecap:butt;stroke-linejoin:miter;stroke-opacity:1"/> <path style="fill:#000000;stroke:#000000;stroke-width:1px;stroke-linecap:butt;stroke-linejoin:miter;stroke-opacity:1" d="m 367.5474,225.25176 c 0.099,2.93765 -2.4195,1.02293 -3.3851,1.87919 -2.8993,2.57103 -5.8489,5.22998 -9.0941,7.78362 -1.6425,1.29244 -3.9106,2.27982 -5.2881,3.84734 -1.0029,1.14117 -1.3211,2.88408 -2.324,4.02525 -0.014,0.0161 -4.5315,6.11038 -4.4701,5.08636 0.1053,-1.75308 7.32,-12.67853 8.632,-14.95093 1.4994,-2.59714 2.6961,-5.19717 4.891,-7.14347 0.6624,-0.58738 1.7706,-3.06686 1.3279,-2.30014 -1.3611,2.35757 -3.3499,2.12869 -5.2881,3.84734 -1.2499,1.10836 -2.355,0.63102 -3.6281,0.97215 -0.2138,0.0573 -0.4427,0.76671 -0.332,0.57504 3.0731,-5.32274 8.7593,-9.08913 13.5642,-12.86999 0.9954,-0.78326 4.0927,-1.77678 4.6241,-2.69726 0.065,-0.11227 -3.6902,0.0433 -3.8711,0.0651 -4.0318,0.48575 -7.9802,1.764 -12.0345,2.25247 -0.9419,0.11348 -2.4866,-0.13741 -3.2961,0.39711 -0.1848,0.12195 -0.4427,0.76672 -0.332,0.57504 2.3479,-4.06677 4.1097,-6.23214 8.5191,-8.11563 1.9272,-0.82322 4.3134,-1.15577 6.3492,-1.70126 1.106,0.71512 0.761,-0.68999 1.2391,-0.81808 0.2137,-0.0573 0.7667,0.44266 0.575,0.332 -2.1233,-1.22589 -7.7026,-1.57622 -10.2855,-2.10478 -0.3067,-0.0627 -0.6047,0.16203 -0.9071,0.24303 -0.494,-0.0297 -0.9972,0.0103 -1.482,-0.0889 -3.147,-0.64399 2.2554,-4.5989 2.9879,-5.17533 1.7288,-1.36037 3.5843,-3.55275 5.6201,-4.42237 0.8384,-0.35811 6.7555,-2.40486 7.0133,-2.85134 0.073,-0.12597 -3.1815,-1.0776 -3.2072,-1.08495 -1.8509,-0.52947 -12.2562,-0.38912 -12.9177,-2.85773 -0.7264,-2.71121 19.2612,-0.67883 18.3837,-3.95374 -0.03,-0.11174 -16.0529,-9.11653 -16.344,-10.20295 -0.4709,-1.7573 3.5376,-0.68011 4.2032,-0.64016 4.5567,0.27351 14.0345,4.50277 17.0318,3.69964 2.5592,-0.68571 -9.1711,-10.64409 -9.4197,-11.57223 -1.8573,-6.93146 11.469,2.89372 10.4634,-0.85936 -0.1694,-0.6321 -11.5868,-8.77515 -12.3839,-11.75014 -1.0926,-4.07775 10.8189,3.94617 11.3466,4.25084 1.5596,0.9004 3.073,2.64546 3.1182,2.56702 0.5055,-0.87555 -7.285,-9.06751 -6.8766,-9.33721 1.3559,-0.89522 5.7549,2.55586 6.6574,3.07694 3.3019,1.90634 25.4547,15.17912 26.2738,18.236" id="path3108"/> <path style="fill:#000000;stroke:#000000;stroke-width:1px;stroke-linecap:butt;stroke-linejoin:miter;stroke-opacity:1" d="m 391.1733,153.78686 c -1.9168,-1.10666 -3.8336,-2.21331 -5.7504,-3.31997 -1.9739,-1.13963 -4.2859,-1.70775 -6.0823,-2.74494 -1.0005,-0.57764 -5.1472,-1.06897 -5.5073,-2.41295 -0.057,-0.21378 0.3892,-0.36124 0.3319,-0.57503 -0.057,-0.21379 -0.6857,-0.14032 -0.575,-0.33199 0.2019,-0.34966 17.4221,5.93286 19.664,4.45259 2.3882,-1.57677 -9.8046,-8.72756 -11.3228,-9.60407 -0.9584,-0.55333 -1.9168,-1.10666 -2.8752,-1.65999 -0.1916,-0.11066 -0.6857,-0.14032 -0.575,-0.332 0.2436,-0.42193 11.1653,2.35645 12.9177,2.85773 0.8512,0.24349 1.4164,1.27494 2.3001,1.32799 0.221,0.0132 0.1182,-0.51776 0.332,-0.57504 0.4276,-0.11457 0.9288,1.04735 1.1501,0.664 0.4914,-0.85123 -14.2081,-8.83098 -12.2298,-9.36105 0.3643,-0.0976 1.3373,0.91663 1.7251,0.99599 5.1192,1.04758 10.7919,1.31382 15.8818,3.03565 0.6956,0.23532 9.0655,2.99385 8.8034,2.01582 -0.6132,-2.28862 -13.477,-8.5453 -16.101,-9.29592 -2.5023,-0.71581 -4.8031,-1.7757 -7.3214,-1.92686 -0.6986,-0.0419 -2.6632,-0.77091 -2.0571,-0.42095 2.9391,1.6969 16.7724,-0.28378 23.2922,3.48044 0.022,0.0127 6.847,2.74852 6.6574,3.07692 -0.029,0.0501 -2.1013,-2.68605 -2.2112,-2.81005 -1.9307,-2.17723 -3.768,-14.05879 -2.4066,-14.42357 0.6913,-0.18524 4.7594,8.95594 4.8195,8.91625 1.4311,-0.94489 8.0971,-15.25971 9.782,-14.28693 1.2168,0.70249 1.1929,7.05038 1.2803,8.40633 0.061,0.9411 0.9153,1.6016 1.0611,2.14606 0.057,0.21379 -0.4426,0.76671 -0.332,0.57503 2.6672,-4.6197 9.0642,-17.49712 13.9201,-18.79825 1.5013,-0.40227 -2.3378,13.57915 2.0984,9.64535 1.9233,-1.70549 7.0171,-9.77109 7.8789,-12.31879 0.7948,-2.349231 0.9702,-6.251011 1.1088,-8.560411 0.019,-0.31245 -0.5454,-0.82602 -0.243,-0.90703 0.4726,-0.12663 -0.1049,3.11187 0.8832,5.1102 1.7988,3.63808 2.5538,8.122611 2.8275,12.366461 0.062,0.96138 0.1544,5.30549 0.8832,5.1102 1.95,-0.5225 7.8642,-20.761181 8.6557,-20.304171 0.049,0.0283 -0.097,4.7467 -0.024,5.35325 0.2655,2.202971 0.5317,5.612411 1.0373,7.499291 0.5029,1.87668 1.0032,-1.84497 0.8181,1.23903 -0.031,0.51427 -0.137,1.56534 0.575,0.332 2.5002,-4.33044 5.8447,-9.026641 4.4288,-14.310781 -0.2066,-0.77082 -0.8546,-1.37523 -1.0611,-2.14606 -0.1001,-0.37348 -0.4247,-2.54534 -0.7291,-2.7211 -0.5212,-0.30092 0.1199,2.32003 0.154,2.38911 1.3908,2.81281 3.0769,5.30792 4.5765,8.00921 1.2123,2.183821 1.6427,4.836051 2.8513,7.013231 1.5632,2.81583 2.8396,5.15525 3.6694,8.25225 0.1908,0.71192 0.9217,3.15558 1.3042,3.05309 0.6924,-0.18551 0.101,-1.29546 0.089,-1.48206 -0.4729,-7.33311 0.3678,3.78465 0.7529,-2.63214 0.044,-0.74104 -0.6298,-1.89706 -0.7291,-2.7211 -0.504,-4.18344 -2.6184,-14.435521 -1.8966,-17.962751 0.089,-0.43367 0.2806,-1.3714 0.664,-1.15007 0.515,0.29732 1.0388,4.12218 1.2152,4.53516 0.9522,2.22928 3.1372,4.451971 3.7584,6.770201 0.1488,0.55562 -0.3794,1.78756 0.154,2.38909 0.2937,0.33121 0.9062,0.2946 1.1501,0.664 0.4889,0.74049 -1.7715,0.51063 -0.089,1.48207 0.4724,0.27274 0.5501,-4.87693 0.5989,-5.02124 0.4706,-1.39109 4.7676,-10.281581 5.6439,-9.775611 1.1191,0.6461 2.1208,18.858861 2.7147,19.201771 0.3834,0.22133 0.4427,-0.76671 0.664,-1.15007 0.7747,-1.34175 1.5494,-2.6835 2.324,-4.02525 1.8819,-3.25943 6.6949,-13.945831 10.114,-14.861971 0.9707,-0.26011 -0.5122,5.88941 -0.6878,6.5033 -0.4079,1.42571 -1.2787,2.967141 -1.749,4.357251 -0.847,2.50376 -4.5363,6.65304 -3.8298,9.28953 0.4236,1.58114 9.8659,-4.96786 10.7303,-5.30556 4.472,-1.74718 10.2962,-3.47602 15.0875,-3.55662 6.2954,-0.10591 -1.2956,0.82172 3.5392,0.50991 1.4991,-0.0967 3.6449,-0.97665 4.5352,-1.21519 3.4401,-0.92178 -4.2151,4.29901 -6.9481,6.72251 -1.3559,1.20231 -2.6702,2.11883 -4.0491,3.02925 -0.413,0.2727 -1.4865,1.24669 -1.239,0.81808 1.2769,-2.21175 15.2313,-1.66729 17.6307,-1.3216 0.1107,0.0159 5.0688,0.51657 5.0212,0.59887 -0.7165,1.24103 -12.2717,3.18121 -12.1234,3.73454 0.3038,1.13388 3.3719,0.73495 4.1142,0.84192 1.3777,0.19848 20.2165,3.37614 17.85,4.93866 -1.0118,0.66805 -8.6626,0.58509 -10.4635,0.85937 -7.8828,1.20059 -15.7985,2.5579 -23.7369,3.9299 -2.9383,0.50782 -8.4554,1.27737 -11.3705,1.1024 -3.6525,-0.21924 -0.431,-0.87841 -4.4462,-0.26687 -7.9196,1.20619 -15.4925,1.98736 -23.4049,3.35487 -8.3717,1.44688 2.2677,-0.12155 -4.8672,1.79022 -1.5416,0.4131 -3.2003,0.0678 -4.7782,0.30816 -8.2646,1.25874 -16.8861,1.55961 -25.13,2.35888 -4.6569,0.4515 -0.8894,0.72437 -4.8672,1.79023 -5.707,1.52919 -11.4564,3.06973 -17.2336,4.61774 -3.9329,1.05381 -8.02,1.64105 -12.0345,2.25247 -5.6885,0.86638 -11.5987,3.59394 -16.6586,4.94974 -1.6149,0.43271 -1.9697,3.93033 -3.231,4.26828 -0.2138,0.0573 -0.3834,-0.22133 -0.575,-0.332 -0.826,0.54538 -1.6521,1.09077 -2.4781,1.63616 z" id="path3110"/> <path style="fill:#000000;stroke:#000000;stroke-width:1px;stroke-linecap:butt;stroke-linejoin:miter;stroke-opacity:1" d="m 547.1353,122.69067 c 2.2486,-1.62492 4.528,-3.08696 7.3452,-3.42638 4.2148,-0.50781 8.3248,1.11275 12.4316,1.04367 3.9112,-0.0658 7.1347,-0.33581 10.9495,0.9547 0.4707,0.15923 8.1282,0.52942 7.6534,1.35183 -0.2213,0.38335 -0.7082,-0.63748 -1.1501,-0.664 -0.494,-0.0297 -0.745,0.84773 -1.239,0.81807 -0.4419,-0.0265 -0.7164,-0.57524 -1.1501,-0.66399 -1.1936,-0.24426 -5.9402,0.93672 -7.4993,1.03728 -0.8005,0.0516 -4.4304,-0.20781 -4.2032,0.64016 0.011,0.042 16.138,4.35952 17.85,4.93867 2.4647,0.83378 4.6424,1.25507 4.3572,1.74894 -0.1622,0.28106 -6.0866,-0.16108 -6.8353,-0.11279 -0.381,0.0246 -6.3989,0.45927 -6.2602,0.2192 0.332,-0.57504 1.15,0.66399 1.7251,0.99599 1.7562,1.01395 0.7164,0.57525 3.2071,1.08495 4.0818,0.83527 8.3896,2.70062 12.2537,4.0078 1.3649,0.46173 3.1028,1.02467 4.3573,1.74894 0.3833,0.22133 1.5919,0.69052 1.15,0.664 -3.314,-0.19892 -6.974,-0.84201 -10.3745,-0.62271 -0.2016,0.013 -3.116,0.0851 -2.9641,-0.17792 0.332,-0.57503 1.1501,0.664 1.7251,0.99599 3.0773,1.77667 -1.3724,-0.63071 3.2072,1.08496 5.5249,2.06981 11.0842,3.33261 16.2789,6.33177 1.1501,0.664 2.3002,1.32799 3.4502,1.99199 0.1917,0.11066 0.6857,0.14031 0.5751,0.33199 -0.1209,0.20941 -10.7965,-2.54773 -11.1926,-1.86173 -0.1107,0.19168 0.3834,0.22133 0.575,0.33199 1.3418,0.77466 2.6835,1.54932 4.0253,2.32398 2.0073,1.15895 14.9204,6.70387 15.526,8.96392 0.2791,1.04165 -7.7275,-3.43864 -8.7145,-3.49789 -0.4419,-0.0265 -1.394,-1.03339 -1.1501,-0.66399 1.7292,2.61896 5.1258,3.81125 7.3865,5.79803 2.1249,1.86742 3.1616,3.88191 4.9974,5.95212 0.9906,1.11707 2.5948,2.14566 2.5432,2.23501 -0.1482,0.25675 -9.8319,-4.65133 -8.4715,-2.59085 1.2142,1.83891 5.2445,2.52866 6.9005,3.98396 2.1064,1.8512 4.456,3.51544 5.9044,5.70908 0.4344,0.65795 1.7515,1.09448 1.9681,1.90302 0.5435,2.02819 -4.1142,-0.84191 -6.1713,-1.26286 -1.2622,-0.2583 -3.3837,-1.69051 -4.3572,-1.74894 -0.494,-0.0297 -1.7295,0.33964 -1.4821,-0.089 0.1351,-0.234 1.945,0.92753 3.6933,2.89902 0.5874,0.6624 1.6636,0.71258 2.3001,1.32798 0.8628,0.83422 6.9619,7.86148 6.6336,8.43017 -0.1938,0.33566 -1.5499,-1.38877 -2.8752,-1.65998 -0.044,-0.009 -4.7157,-1.12817 -4.3573,-1.74895 0.2475,-0.4286 0.5454,0.82602 0.8181,1.23904 0.5641,0.85428 1.4446,0.84444 1.9682,1.90301 0.4002,0.80941 5.8354,7.53015 6.6335,8.43018 1.1514,1.29847 1.3141,1.27599 1.6362,2.47806 0.057,0.21379 0.7667,0.44267 0.575,0.332 -2.2868,-1.32026 -4.2049,-2.37537 -6.6574,-3.07694 -0.6816,-0.19499 -1.6408,-0.9473 -2.3001,-1.32799 -0.1917,-0.11066 -0.7667,-0.44266 -0.5751,-0.33199 2.0214,1.16703 11.8979,13.56445 12.4491,15.62132 0.5109,1.90681 -11.9125,-4.57753 -13.0718,-5.24684 -0.575,-0.332 -1.3931,-1.57102 -1.7251,-0.99599 -0.4907,0.85002 2.6464,3.46926 3.0293,4.04908 3.4768,5.26587 9.7357,9.12328 11.2989,14.95733 0.1621,0.60469 1.2311,0.96633 1.3932,1.57102 0.9624,3.59198 -11.2853,-5.68522 -11.5897,-5.15787 -0.1068,0.18488 9.402,9.01262 10.4157,9.84712 1.5247,1.25513 2.4052,1.44649 3.6933,2.89902 3.2328,3.64564 -11.7452,-4.06739 -9.7105,-1.77278 1.0327,1.16456 9.1274,8.73411 6.8766,9.3372 -0.9299,0.24917 -6.071,-3.33922 -7.2324,-3.40893 -2.5242,-0.15151 -4.1661,-2.56712 -6.6574,-3.07693 -4.3126,-0.88252 -6.5351,-2.62058 -7.3865,-5.79803 -0.5903,-2.203 0.6585,-0.74567 -0.1541,-2.38911 -1.9295,-3.90233 -3.0689,-7.88171 -5.5486,-11.63734 -4.6688,-7.07126 -10.1152,-13.52062 -15.1463,-20.24544 -1.971,-2.63452 -2.8334,-6.2615 -4.8195,-8.91625 -1.0933,-1.46142 -2.7767,-2.39659 -3.9363,-3.80605 -6.2458,-7.59191 -12.4972,-14.97021 -19.8355,-21.41934 -1.845,-1.62138 -2.9475,-5.54562 -4.0014,-7.67722 -1.1009,-2.22646 -17.2512,-26.06096 -17.7546,-26.35163 -0.9774,-0.56429 -2.1382,-0.7233 -3.2072,-1.08494 z" id="path3112"/> <path style="opacity:0.98999999;fill:#164450;fill-opacity:1;stroke:none" d="m 332.4586,387.95113 -11.8506,-7.57759 c 2.6291,-12.20537 -7.7832,-27.41878 -7.7832,-27.41878 1.4693,0.97952 11.2812,-19.58924 11.7738,-22.11165 2.5253,-0.48642 10.5012,-2.1311 12.3411,-3.30975 l 4.5821,-5.95882 -0.2299,21.30571 c 0.066,19.339 1.999,31.76612 7.762,49.90995 1.846,5.81182 4.3578,12.77609 4.1548,12.97907 -6.9111,-6.57306 -13.0221,-12.20992 -20.7501,-17.81814 z" id="path3116"/> <path style="opacity:0.98999999;fill:#164450;fill-opacity:1;stroke:none" d="m 644.6458,421.33426 c 14.0251,-52.66802 19.5232,-110.31658 10.8101,-155.17861 6.8233,1.96102 13.4281,-0.43762 18.0358,2.39404 4.9455,3.0916 14.8456,5.99691 17.6499,5.99691 0.8201,2.07124 0.361,5.36308 1.4747,10.0056 -4.4614,4.35276 -16.8283,9.80951 -22.9969,61.28651 2.4437,14.45035 -20.6841,52.28191 -20.7139,78.76594 -1.4524,-1.22751 -4.1622,-2.41016 -4.2597,-3.27039 z" id="path3122"/> <path id="path3151" d="M 623.4012,414.48069 C 648.5083,563.4875 405.5436,784.0392 440.278,909.24456" style="fill:none;stroke:#ffffff;stroke-width:4;stroke-linecap:butt;stroke-linejoin:miter;stroke-opacity:1"/> <path id="path3153" d="m 403.6827,448.8999 c -3.3475,28.58833 144.6268,187.05461 97.2942,269.31087" style="fill:none;stroke:#ffffff;stroke-width:4;stroke-linecap:butt;stroke-linejoin:miter;stroke-opacity:1"/> <path id="path3155" d="m 399.613,442.2705 8.1764,20.75554 0,0" style="fill:none;stroke:#ffffff;stroke-width:8;stroke-linecap:butt;stroke-linejoin:miter;stroke-opacity:1"/> <path id="path3159" d="m 506.8162,705.83077 -16.1184,29.4217" style="fill:none;stroke:#ffffff;stroke-width:8;stroke-linecap:butt;stroke-linejoin:miter;stroke-opacity:1"/> </g> </svg>